<?xml version="1.0" standalone="no"?>
<!DOCTYPE svg PUBLIC "-//W3C//DTD SVG 1.1//EN"
  "http://www.w3.org/Graphics/SVG/1.1/DTD/svg11.dtd">
<svg baseProfile="full" height="100%" version="1.1" width="100%" xmlns="http://www.w3.org/2000/svg" xmlns:ev="http://www.w3.org/2001/xml-events" xmlns:xlink="http://www.w3.org/1999/xlink"><defs><marker fill="black" id="id1" markerHeight="10" markerUnits="strokeWidth" markerWidth="8" orient="auto" overflow="visible" refX="0" refY="5" stroke="none" viewBox="0 0 10 5"><path d="M 0 0 L 10 5 L 0 10 z" /></marker><marker fill="black" id="id2" markerHeight="10" markerUnits="strokeWidth" markerWidth="8" orient="auto" overflow="visible" refX="0" refY="5" stroke="none" viewBox="0 0 10 5"><path d="M 0 0 L 10 5 L 0 10 z" /></marker><marker fill="black" id="id3" markerHeight="10" markerUnits="strokeWidth" markerWidth="8" orient="auto" overflow="visible" refX="0" refY="5" stroke="none" viewBox="0 0 10 5"><path d="M 0 0 L 10 5 L 0 10 z" /></marker></defs><rect fill="#EBD9B2" height="30" stroke="#000000" width="231.0" x="195" y="200" /><rect fill="#ffffff" height="20" stroke="rgb(0,0,0)" width="231.0" x="195" y="230" /><rect fill="#EBD9B2" height="30" stroke="#000000" width="192.5" x="297.5" y="282" /><rect fill="#ffffff" height="50" stroke="rgb(0,0,0)" width="192.5" x="297.5" y="312" /><rect fill="#EBD9B2" height="30" stroke="#000000" width="165.0" x="370" y="420" /><rect fill="#ffffff" height="50" stroke="rgb(0,0,0)" width="165.0" x="370" y="450" /><rect fill="#EBD9B2" height="30" stroke="#000000" width="154.0" x="475.5" y="527" /><rect fill="#ffffff" height="65" stroke="rgb(0,0,0)" width="154.0" x="475.5" y="557" /><line marker-end="url(#id1)" stroke="#000000" x1="431.0" x2="292.5" y1="240" y2="327" /><line marker-end="url(#id2)" stroke="#000000" x1="495.0" x2="365" y1="352" y2="465" /><line marker-end="url(#id3)" stroke="#000000" x1="540.0" x2="470.5" y1="490" y2="572" /><g style="font-family: Helvetica, Arial, FreeSans, Sans, sans, sans-serif;"><text style="font-size:14px" x="200" y="220">mtbls_nmr_raw_dummy_importer</text><text style="font-size:10px" x="200" y="245">nmr_raw</text><text style="font-size:14px" x="302.5" y="302">nmrmlconv</text><text style="font-size:10px" x="302.5" y="327">Input file in zip format to convert</text><text style="font-size:10px" x="302.5" y="357">outfile</text><text style="font-size:14px" x="375" y="440">ZIP nmrML Collection</text><text style="font-size:10px" x="375" y="465">Collection data</text><text style="font-size:10px" x="375" y="495">outfile</text><text style="font-size:14px" x="480.5" y="547">rnmr1d</text><text style="font-size:10px" x="480.5" y="572">Zipped nmrML file collection</text><text style="font-size:10px" x="480.5" y="587">Macro-Command file</text><text style="font-size:10px" x="480.5" y="617">outfile</text><line stroke="rgb(0,0,0)" x1="297.5" x2="490.0" y1="337" y2="337" /><circle cx="426.0" cy="240" fill="#ffffff" r="5" stroke="#000000" /><line stroke="rgb(0,0,0)" x1="370" x2="535.0" y1="475" y2="475" /><circle cx="490.0" cy="352" fill="#ffffff" r="5" stroke="#000000" /><line stroke="rgb(0,0,0)" x1="475.5" x2="629.5" y1="597" y2="597" /><circle cx="535.0" cy="490" fill="#ffffff" r="5" stroke="#000000" /></g></svg>